<svg width="24" height="24" viewBox="0 0 24 24" fill="none" xmlns="http://www.w3.org/2000/svg">
<g id="Close">
<mask id="mask0_32_9071" style="mask-type:alpha" maskUnits="userSpaceOnUse" x="0" y="0" width="24" height="24">
<rect id="Bounding box" x="0.1875" y="0.1875" width="23.625" height="23.625" fill="#D9D9D9"/>
</mask>
<g mask="url(#mask0_32_9071)">
<path id="close" d="M12 13.3781L7.17654 18.2015C6.99607 18.382 6.76638 18.4722 6.48748 18.4722C6.20857 18.4722 5.97888 18.382 5.79841 18.2015C5.61794 18.0211 5.52771 17.7914 5.52771 17.5125C5.52771 17.2336 5.61794 17.0039 5.79841 16.8234L10.6219 12L5.79841 7.17654C5.61794 6.99607 5.52771 6.76638 5.52771 6.48748C5.52771 6.20857 5.61794 5.97888 5.79841 5.79841C5.97888 5.61794 6.20857 5.52771 6.48748 5.52771C6.76638 5.52771 6.99607 5.61794 7.17654 5.79841L12 10.6219L16.8234 5.79841C17.0039 5.61794 17.2336 5.52771 17.5125 5.52771C17.7914 5.52771 18.0211 5.61794 18.2015 5.79841C18.382 5.97888 18.4722 6.20857 18.4722 6.48748C18.4722 6.76638 18.382 6.99607 18.2015 7.17654L13.3781 12L18.2015 16.8234C18.382 17.0039 18.4722 17.2336 18.4722 17.5125C18.4722 17.7914 18.382 18.0211 18.2015 18.2015C18.0211 18.382 17.7914 18.4722 17.5125 18.4722C17.2336 18.4722 17.0039 18.382 16.8234 18.2015L12 13.3781Z" fill="#FFEFEF"/>
</g>
</g>
</svg>
